<?xml version="1.0" encoding="utf-8"?>
<!-- Generator: Adobe Illustrator 26.4.1, SVG Export Plug-In . SVG Version: 6.00 Build 0)  -->
<svg version="1.1" id="Layer_1" xmlns="http://www.w3.org/2000/svg" xmlns:xlink="http://www.w3.org/1999/xlink" x="0px" y="0px"
	 viewBox="0 0 100 100" style="enable-background:new 0 0 100 100;" xml:space="preserve">
<style type="text/css">
	.st0{fill:#F4B400;}
</style>
<g>
	<g>
		<path class="st0" d="M100.3,12.1v75.7c0,6.7-5.4,12.1-12.1,12.1H12.5c-6.7,0-12.1-5.4-12.1-12.1V12.1C0.3,5.4,5.8,0,12.5,0h75.7
			C94.9,0,100.3,5.4,100.3,12.1z"/>
	</g>
</g>
<g>
	<path d="M83.3,27.8C73.8,33,72.8,33.3,64.4,28C56.2,22.2,45,21.5,36,27.2l0,0c-9,5.7-13.3,16.1-11.6,26c1.2,9.8,0.5,10.6-8.3,16.9
		C10.9,74,4.4,78.8,4.2,79.1c8.5-4.6,17-9.4,25.4-14.3c1.8-1.1,3.6-2.1,5.4-3.2c1.1-0.7,2.2-1.3,3.3-2l0,0c0.4-0.2,0.7-0.4,1.1-0.7
		l0,0c0.9-0.6,1.9-1.1,2.8-1.7c0,0,0,0,0,0c3.1-1.9,6.1-3.8,9.1-5.7l0,0c3-1.9,6-3.8,9.1-5.8c0,0,0,0,0,0c0.9-0.6,1.8-1.2,2.7-1.8
		l0,0c0.4-0.2,0.7-0.5,1.1-0.7l0,0c1.1-0.7,2.2-1.4,3.2-2.1c1.7-1.2,3.5-2.3,5.2-3.5c8-5.4,16-11,23.8-16.8
		C96,20.9,88.9,24.7,83.3,27.8z M62.1,41.8C58,44.4,54,46.9,50,49.5l0,0c-4,2.5-8,5.1-12.1,7.6c-0.1-0.2-0.2-0.4-0.4-0.5
		C33.3,49.9,35.3,41,42,36.8l0,0c6.7-4.2,15.6-2.2,19.8,4.5C61.9,41.4,62,41.6,62.1,41.8z M66.1,38.6c-0.9,0.7-1.9,1.3-2.8,2
		c-0.3,0.2-0.8-0.6-1.4-1.4c0,0,0,0,0,0C57,33,48.1,31.4,41.3,35.7l0,0c-6.8,4.3-9.2,13.1-5.6,20.1c0,0,0,0,0,0
		c0.4,0.9,0.9,1.7,0.6,1.9c-1,0.5-2,1.1-3,1.6c0,0,0-0.1-0.1-0.1c-5-7.9-3.6-17.9,2.8-24.2l0,0c1-1,2.1-1.8,3.3-2.6l0,0
		c1.2-0.8,2.5-1.4,3.7-1.8l0,0c8.4-3,18.1,0,23,7.9C66.1,38.6,66.1,38.6,66.1,38.6z"/>
	<path d="M75.3,48.3c0.1,2.5-0.2,4.9-0.9,7.3c0,0,0,0,0,0c0,0,0,0,0,0c0,0,0,0,0,0c0,0,0,0,0,0c-1.1,4.2-3.3,8-6.4,11.2c0,0,0,0,0,0
		c0,0,0,0,0,0c0,0,0,0,0,0c-1.4,1.4-2.9,2.6-4.6,3.7l0,0c-1.7,1.1-3.5,1.9-5.3,2.6c0,0,0,0,0,0c0,0,0,0,0,0c0,0,0,0,0,0
		c-4.2,1.5-8.6,1.7-12.9,1c0,0,0,0,0,0c0,0,0,0,0,0c0,0,0,0,0,0c0,0,0,0,0,0c-2.4-0.4-4.7-1.2-6.9-2.3c0,0,0-0.1,0-0.1
		c0-2.2,0.2-4.4,0.7-6.6c1.6,1.1,3.4,1.9,5.2,2.4c0,0,0,0,0,0c4,1.2,8.3,1.1,12.3-0.4c0,0,0,0,0,0c1.2-0.5,2.4-1.1,3.6-1.8l0,0
		c1.2-0.7,2.2-1.6,3.2-2.5c0,0,0,0,0,0c3.1-3,5-6.9,5.6-11c0,0,0,0,0,0c0.3-1.9,0.3-3.8,0-5.7c2.2,0.4,4.3,1.2,6.3,2.2
		C75.2,48.3,75.2,48.3,75.3,48.3z"/>
	<path d="M64.9,45.6L64.9,45.6c1.3,6.2-1.2,12.9-6.9,16.5l0,0c-5.7,3.6-12.8,3-17.9-0.8l0,0c0.2-0.4,0.3-0.8,0.5-1.2
		c4.6,3.7,11.3,4.3,16.7,1l0,0c5.3-3.4,7.7-9.7,6.3-15.5C64,45.5,64.5,45.6,64.9,45.6z"/>
</g>
</svg>
